{"accessors":[{"bufferView":0,"byteOffset":0,"componentType":5126,"count":2764,"max":[40.0,20.0,7.0],"min":[0.0,-20.0,-2.50457763671875],"type":"VEC3"},{"bufferView":1,"byteOffset":0,"componentType":5121,"count":5524,"normalized":true,"type":"VEC4"},{"bufferView":2,"byteOffset":0,"componentType":5125,"count":16572,"type":"SCALAR"}],"asset":{"generator":"VTK","version":"2.0"},"bufferViews":[{"buffer":0,"byteLength":33168,"byteOffset":0,"target":34962},{"buffer":1,"byteLength":22096,"byteOffset":0,"target":34962},{"buffer":2,"byteLength":66288,"byteOffset":0,"target":34963}],"buffers":[{"byteLength":33168,"uri":"data:application/octet-stream;base64,"},{"byteLength":22096,"uri":"data:application/octet-stream;base64,"},{"byteLength":66288,"uri":"data:application/octet-stream;base64,"}],"cameras":[{"perspective":{"aspectRatio":1.1229946524064172,"yfov":0.5235987755982988,"zfar":183.3542760929215,"znear":53.399226054482355},"type":"perspective"}],"materials":[{"pbrMetallicRoughness":{"baseColorFactor":[1.0,1.0,1.0,1.0],"metallicFactor":0.0,"roughnessFactor":1.0}}],"meshes":[{"name":"mesh0","primitives":[{"attributes":{"COLOR_0":1,"POSITION":0},"indices":2,"material":0,"mode":4}]}],"nodes":[{"mesh":0,"name":"mesh0"},{"camera":0,"matrix":[0.677256903910725,-0.7350296946603294,-0.032472050640535446,-0.0,0.257978933454535,0.19590616865585173,0.9460801461695754,-0.0,-0.6890355259338369,-0.6491164156375399,0.32230098192675877,-0.0,-56.3546653985797,-71.93107591013955,37.963117291215305,1.0],"name":"Camera Node"},{"children":[0,1],"name":"Renderer Node"}],"scene":0,"scenes":[{"name":"Layer 0","nodes":[2]}]}